<svg width="64" height="64" viewBox="0 0 64 64" fill="none" xmlns="http://www.w3.org/2000/svg">
<g clip-path="url(#clip0_1290_60)">
<path d="M50 0H14C6.26801 0 0 6.26801 0 14V50C0 57.732 6.26801 64 14 64H50C57.732 64 64 57.732 64 50V14C64 6.26801 57.732 0 50 0Z" fill="#09090B"/>
<path d="M48.04 15.6456C51.6833 14.8181 55.9999 17.5268 56 21.2628V43.2677C56 47.0038 51.6833 49.7125 48.04 48.8849C43.5623 47.8673 38.01 47.2648 31.9971 47.2648C25.9849 47.2648 20.4335 47.8675 15.9561 48.8849C12.3138 49.7123 8.00005 47.0047 8 43.2697V21.2609C8.0001 17.5258 12.3138 14.8191 15.9561 15.6466C20.4335 16.6641 25.9849 17.2657 31.9971 17.2658C38.01 17.2658 43.5623 16.6632 48.04 15.6456ZM28.333 26.9005C27.8076 26.1876 26.717 26.2701 26.3047 27.0538L21.1221 36.9122C20.6641 37.7834 21.3926 38.813 22.3701 38.6984C25.3589 38.348 28.6045 38.1554 31.9971 38.1554C35.1675 38.1554 38.21 38.323 41.0342 38.631C42.0951 38.7464 42.8196 37.5356 42.1885 36.6749L37.8291 30.7306C37.4358 30.1946 36.6817 30.0809 36.1475 30.4767L33.7627 32.2423C33.2292 32.6375 32.4759 32.5249 32.082 31.9904L28.333 26.9005Z" fill="#F1F1F1"/>
</g>
<defs>
<clipPath id="clip0_1290_60">
<rect width="64" height="64" fill="white"/>
</clipPath>
</defs>
</svg>
