<svg width="64" height="64" viewBox="0 0 64 64" fill="none" xmlns="http://www.w3.org/2000/svg">
<g clip-path="url(#clip0_1290_45)">
<path d="M53.3857 10.1097C58.2436 9.00574 64 12.6173 64 17.599V46.9388C63.9999 51.9205 58.2435 55.5323 53.3857 54.4281C47.4155 53.071 40.0133 52.267 31.9961 52.267C23.9798 52.267 16.5783 53.0704 10.6084 54.4271C5.75198 55.5308 5.90048e-05 51.921 0 46.9408V17.5961C0.000339727 12.616 5.75208 9.00632 10.6084 10.1097C16.5783 11.4662 23.9798 12.2689 31.9961 12.2689C40.0132 12.2689 47.4155 11.4665 53.3857 10.1097ZM27.1094 25.1146C26.4088 24.1639 24.954 24.2735 24.4043 25.3187L17.4941 38.4633C16.8836 39.6247 17.8559 40.9969 19.1592 40.8441C23.1442 40.3771 27.4719 40.1205 31.9951 40.1205C36.2219 40.1205 40.2777 40.3449 44.043 40.7552C45.4575 40.9094 46.424 39.2945 45.583 38.1468L39.7705 30.2211C39.2462 29.5061 38.2408 29.3535 37.5283 29.8812L34.3486 32.2357C33.6374 32.7624 32.6335 32.6123 32.1084 31.8998L27.1094 25.1146Z" fill="#F1F1F1"/>
</g>
<defs>
<clipPath id="clip0_1290_45">
<rect width="64" height="64" fill="white"/>
</clipPath>
</defs>
</svg>
